<svg id="Layer_1" data-name="Layer 1" xmlns="http://www.w3.org/2000/svg" xmlns:xlink="http://www.w3.org/1999/xlink" viewBox="0 0 20 20" width="20" height="20" >
    <defs>
        <style>
        .cls-1 {
            fill: none;
        }
        
        .cls-2 {
            opacity: 0.2;
        }
        
        .cls-3 {
            clip-path: url(#clip-path);
        }
        
        .cls-4 {
            fill: #fff;
        }
        </style>
        <clipPath id="clip-path">
            <rect class="cls-1" width="20" height="20" />
        </clipPath>
    </defs>
    <title>home-arrow</title>
    <g class="cls-2">
        <g class="cls-3">
            <path class="cls-4" d="M10,19.33A9.33,9.33,0,1,0,.66,10,9.33,9.33,0,0,0,10,19.33" />
        </g>
    </g>
    <path class="cls-4" d="M10,19.83A9.83,9.83,0,1,1,19.83,10,9.84,9.84,0,0,1,10,19.83ZM10,1.16A8.84,8.84,0,1,0,18.84,10,8.85,8.85,0,0,0,10,1.16Z" />
    <path class="cls-4" d="M10.8,5.41,9.8,6l2.67,4L9.85,13.93l.95.66L13.89,10ZM7,5.41,6,6l2.67,4L6.1,13.93l.95.66L10.14,10Z" />
</svg>
